<?xml version="1.0" encoding="utf-8"?>
<!-- Generator: Adobe Illustrator 25.2.1, SVG Export Plug-In . SVG Version: 6.00 Build 0)  -->
<svg version="1.1" id="Layer_1" xmlns="http://www.w3.org/2000/svg" xmlns:xlink="http://www.w3.org/1999/xlink" x="0px" y="0px"
	 viewBox="0 0 32 32" style="enable-background:new 0 0 32 32;" xml:space="preserve">
<style type="text/css">
	.st0{fill:#EF4625;}
</style>
<path class="st0" d="M27.3,8.3L27.3,8.3H9.6C8.1,8.3,6.8,7,6.8,5.5s1.3-2.8,2.8-2.8h17.7c0.7,0,1.3-0.6,1.3-1.3c0-0.4-0.2-0.7-0.4-1
	c-0.2-0.3-0.5-0.5-0.9-0.5H9.6c-3,0-5.5,2.5-5.5,5.5v21c0,3,2.5,5.5,5.5,5.5h17.7c0.4,0,0.7-0.2,1-0.4c0.3-0.2,0.4-0.6,0.4-1v-21
	C28.6,8.9,28,8.3,27.3,8.3z M25.9,29.3H9.6c-1.5,0-2.8-1.3-2.8-2.8V10.3C7.6,10.8,8.6,11,9.6,11l0,0h16.3V29.3z"/>
<path class="st0" d="M8.9,4.2c-0.7,0-1.3,0.6-1.3,1.3c0,0.4,0.2,0.7,0.4,1c0.2,0.3,0.6,0.5,1,0.5h16.2l0,0c0.7,0,1.3-0.6,1.3-1.3
	c0-0.4-0.2-0.7-0.4-1c-0.2-0.2-0.6-0.5-1-0.5H8.9z"/>
</svg>
