<?xml version="1.0" encoding="utf-8"?>
<!-- Generator: Adobe Illustrator 25.2.1, SVG Export Plug-In . SVG Version: 6.00 Build 0)  -->
<svg version="1.1" id="Layer_1" xmlns="http://www.w3.org/2000/svg" xmlns:xlink="http://www.w3.org/1999/xlink" x="0px" y="0px"
	 viewBox="0 0 255 54" style="enable-background:new 0 0 255 54;" xml:space="preserve">
<style type="text/css">
	.st0{fill:#EF4625;}
</style>
<g>
	<path class="st0" d="M74.9,27.6c1.3-0.6,2.2-1.4,2.9-2.4c0.7-1,1-2.2,1-3.6c0-1.3-0.2-2.5-0.7-3.4s-1.1-1.6-1.9-2.2
		c-0.8-0.5-1.8-0.9-2.9-1.2s-2.4-0.4-3.7-0.4H56.2v28.6H70c1.3,0,2.5-0.2,3.7-0.5c1.2-0.3,2.3-0.8,3.2-1.5c0.9-0.7,1.7-1.5,2.3-2.6
		c0.6-1.1,0.8-2.3,0.8-3.7c0-1.8-0.4-3.3-1.3-4.6C78,29,76.6,28.1,74.9,27.6z M62.5,19.4h5.9c0.6,0,1.1,0,1.6,0.1
		c0.5,0.1,1,0.3,1.4,0.5s0.7,0.6,1,1c0.2,0.4,0.4,1,0.4,1.6c0,1.2-0.4,2.1-1.1,2.6c-0.7,0.5-1.6,0.8-2.8,0.8h-6.4V19.4z M73.5,36.3
		c-0.3,0.5-0.6,0.9-1,1.1c-0.4,0.3-0.9,0.5-1.5,0.6c-0.6,0.1-1.1,0.2-1.8,0.2h-6.7v-7.8h6.8c1.4,0,2.5,0.3,3.3,0.9
		c0.8,0.6,1.2,1.7,1.2,3.1C73.8,35.2,73.7,35.8,73.5,36.3z"/>
	<path class="st0" d="M101.6,24.9c-0.9-0.9-2.1-1.7-3.4-2.2c-1.3-0.5-2.8-0.8-4.4-0.8c-1.6,0-3.1,0.3-4.4,0.8
		c-1.3,0.5-2.4,1.3-3.4,2.2c-0.9,0.9-1.7,2.1-2.2,3.4c-0.5,1.3-0.8,2.8-0.8,4.5c0,1.7,0.3,3.1,0.8,4.5c0.5,1.3,1.2,2.5,2.2,3.4
		c0.9,0.9,2.1,1.7,3.4,2.2c1.3,0.5,2.8,0.8,4.4,0.8c1.6,0,3.1-0.3,4.4-0.8c1.3-0.5,2.4-1.2,3.4-2.2c0.9-0.9,1.7-2.1,2.2-3.4
		c0.5-1.3,0.8-2.8,0.8-4.5c0-1.7-0.3-3.2-0.8-4.5C103.3,27,102.5,25.8,101.6,24.9z M98.6,35.2c-0.2,0.8-0.4,1.5-0.8,2.1
		c-0.4,0.6-0.9,1.1-1.6,1.5c-0.7,0.4-1.5,0.6-2.4,0.6s-1.8-0.2-2.4-0.6c-0.6-0.4-1.2-0.9-1.5-1.5c-0.4-0.6-0.7-1.3-0.8-2.1
		c-0.2-0.8-0.2-1.6-0.2-2.4c0-0.8,0.1-1.6,0.2-2.4s0.4-1.5,0.8-2.1s0.9-1.1,1.5-1.5c0.6-0.4,1.4-0.6,2.4-0.6s1.8,0.2,2.4,0.6
		c0.7,0.4,1.2,0.9,1.6,1.5c0.4,0.6,0.7,1.3,0.8,2.1s0.2,1.6,0.2,2.4C98.8,33.6,98.8,34.4,98.6,35.2z"/>
	<path class="st0" d="M126,24.9c-0.9-0.9-2.1-1.7-3.4-2.2c-1.3-0.5-2.8-0.8-4.4-0.8c-1.6,0-3.1,0.3-4.4,0.8
		c-1.3,0.5-2.4,1.3-3.4,2.2c-0.9,0.9-1.7,2.1-2.2,3.4c-0.5,1.3-0.8,2.8-0.8,4.5c0,1.7,0.3,3.1,0.8,4.5c0.5,1.3,1.2,2.5,2.2,3.4
		c0.9,0.9,2.1,1.7,3.4,2.2c1.3,0.5,2.8,0.8,4.4,0.8c1.6,0,3.1-0.3,4.4-0.8c1.3-0.5,2.4-1.2,3.4-2.2c0.9-0.9,1.7-2.1,2.2-3.4
		c0.5-1.3,0.8-2.8,0.8-4.5c0-1.7-0.3-3.2-0.8-4.5C127.7,27,127,25.8,126,24.9z M123,35.2c-0.2,0.8-0.4,1.5-0.8,2.1
		c-0.4,0.6-0.9,1.1-1.6,1.5c-0.7,0.4-1.5,0.6-2.4,0.6s-1.8-0.2-2.4-0.6c-0.6-0.4-1.2-0.9-1.5-1.5c-0.4-0.6-0.7-1.3-0.8-2.1
		c-0.2-0.8-0.2-1.6-0.2-2.4c0-0.8,0.1-1.6,0.2-2.4s0.4-1.5,0.8-2.1s0.9-1.1,1.5-1.5c0.6-0.4,1.4-0.6,2.4-0.6s1.8,0.2,2.4,0.6
		c0.7,0.4,1.2,0.9,1.6,1.5c0.4,0.6,0.7,1.3,0.8,2.1s0.2,1.6,0.2,2.4C123.3,33.6,123.2,34.4,123,35.2z"/>
	<polygon class="st0" points="152.7,22.4 146,22.4 138.8,29.9 138.8,14.6 133.2,14.6 133.2,43.1 138.8,43.1 138.8,36 141,33.9 
		146.7,43.1 153.6,43.1 144.9,30 	"/>
	<path class="st0" d="M175,28.2c-0.9-0.6-1.9-1.1-2.8-1.3c-0.9-0.3-1.7-0.5-2.2-0.6c-1.8-0.5-3.2-0.8-4.3-1.1
		c-1.1-0.3-2-0.6-2.6-0.9c-0.6-0.3-1-0.6-1.3-1s-0.3-0.8-0.3-1.4c0-0.6,0.1-1.1,0.4-1.5c0.3-0.4,0.6-0.7,1-1
		c0.4-0.3,0.9-0.5,1.4-0.6c0.5-0.1,1-0.2,1.5-0.2c0.8,0,1.5,0.1,2.1,0.2c0.7,0.1,1.2,0.4,1.7,0.7c0.5,0.3,0.9,0.8,1.2,1.3
		c0.3,0.6,0.5,1.3,0.5,2.1h6.1c0-1.7-0.3-3.1-0.9-4.2c-0.6-1.2-1.5-2.1-2.5-2.9c-1.1-0.7-2.3-1.3-3.7-1.6c-1.4-0.3-2.8-0.5-4.3-0.5
		c-1.3,0-2.6,0.2-3.8,0.5c-1.3,0.3-2.4,0.9-3.4,1.6c-1,0.7-1.8,1.6-2.5,2.7c-0.6,1.1-0.9,2.4-0.9,3.8c0,1.3,0.2,2.4,0.7,3.3
		c0.5,0.9,1.1,1.7,1.9,2.3c0.8,0.6,1.7,1.1,2.7,1.5c1,0.4,2.1,0.7,3.1,1c1,0.3,2.1,0.6,3.1,0.8c1,0.2,1.9,0.5,2.7,0.8
		c0.8,0.3,1.4,0.7,1.9,1.2c0.5,0.5,0.7,1.1,0.7,1.9c0,0.7-0.2,1.3-0.6,1.8c-0.4,0.5-0.8,0.8-1.4,1.1s-1.2,0.4-1.8,0.5
		c-0.6,0.1-1.2,0.1-1.8,0.1c-0.8,0-1.6-0.1-2.4-0.3c-0.8-0.2-1.4-0.5-2-0.9c-0.6-0.4-1-1-1.4-1.6c-0.3-0.7-0.5-1.5-0.5-2.4h-6.1
		c0,1.8,0.3,3.3,1,4.6c0.7,1.3,1.6,2.3,2.7,3.2c1.1,0.8,2.4,1.4,3.9,1.8c1.5,0.4,3,0.6,4.6,0.6c1.9,0,3.7-0.2,5.1-0.7
		c1.5-0.5,2.7-1.1,3.7-1.9c1-0.8,1.8-1.8,2.3-2.9c0.5-1.1,0.8-2.3,0.8-3.6c0-1.6-0.3-2.9-1-3.9S175.9,28.9,175,28.2z"/>
	<path class="st0" d="M199.4,24.2c-0.6-0.7-1.3-1.3-2.3-1.7c-1-0.4-2.2-0.6-3.7-0.6c-1.1,0-2.2,0.3-3.3,0.8c-1.1,0.5-2,1.4-2.8,2.6
		h-0.1V14.6h-5.7v28.6h5.7V32.3c0-2.1,0.3-3.6,1-4.5c0.7-0.9,1.8-1.4,3.4-1.4c1.4,0,2.3,0.4,2.8,1.3c0.5,0.8,0.8,2.1,0.8,3.8v11.7
		h5.7V30.4c0-1.3-0.1-2.4-0.3-3.5C200.4,25.9,200,25,199.4,24.2z"/>
	<path class="st0" d="M222.7,25.6c-0.8-1.1-1.9-2.1-3.2-2.7c-1.3-0.7-2.8-1-4.6-1c-1.6,0-3,0.3-4.3,0.8c-1.3,0.6-2.4,1.3-3.3,2.3
		c-0.9,1-1.7,2.1-2.2,3.5c-0.5,1.3-0.8,2.8-0.8,4.3c0,1.6,0.2,3.1,0.7,4.4c0.5,1.3,1.2,2.5,2.1,3.4c0.9,1,2,1.7,3.3,2.2
		c1.3,0.5,2.8,0.8,4.4,0.8c2.3,0,4.3-0.5,6-1.6c1.7-1.1,2.9-2.8,3.7-5.3h-5c-0.2,0.6-0.7,1.2-1.5,1.8c-0.8,0.6-1.8,0.9-3,0.9
		c-1.6,0-2.8-0.4-3.7-1.2c-0.9-0.8-1.3-2.2-1.4-4h14.9c0.1-1.6,0-3.1-0.4-4.6C224.1,28.1,223.5,26.8,222.7,25.6z M210,30.6
		c0-0.4,0.1-0.9,0.3-1.4c0.1-0.5,0.4-1,0.8-1.4c0.4-0.5,0.8-0.8,1.4-1.1c0.6-0.3,1.4-0.5,2.3-0.5c1.4,0,2.4,0.4,3.1,1.1
		c0.7,0.7,1.2,1.8,1.4,3.3H210z"/>
	<rect x="228.4" y="14.6" class="st0" width="5.7" height="28.6"/>
	<path class="st0" d="M246,19.4c0.3-0.4,0.9-0.5,1.7-0.5c0.7,0,1.4,0,2.1,0.1v-4.2c-0.5,0-1-0.1-1.5-0.1c-0.5,0-1-0.1-1.5-0.1
		c-2.3,0-4.1,0.6-5.2,1.8c-1.1,1.2-1.7,2.7-1.7,4.5v1.6h-3.4v3.8h3.4v16.9h5.7V26.2h3.9v-3.8h-3.9v-1.2
		C245.5,20.4,245.6,19.7,246,19.4z"/>
	<path class="st0" d="M37,17.8C37,17.8,37,17.8,37,17.8H13.5c-2,0-3.7-1.7-3.7-3.7s1.7-3.7,3.7-3.7l23.5,0c0.9,0,1.7-0.8,1.7-1.7
		c0-0.5-0.2-0.9-0.5-1.3C37.9,7,37.5,6.8,37,6.8H13.5c-4,0-7.3,3.3-7.3,7.3V42c0,4,3.3,7.3,7.3,7.3H37c0.5,0,0.9-0.2,1.3-0.5
		s0.5-0.8,0.5-1.3V19.6C38.8,18.6,38,17.8,37,17.8z M35.2,45.7H13.5c-2,0-3.7-1.7-3.7-3.7V20.4c1.1,0.7,2.4,1,3.7,1c0,0,0,0,0,0
		h21.7V45.7z"/>
	<path class="st0" d="M12.6,12.3c-0.9,0-1.7,0.8-1.7,1.7c0,0.5,0.2,0.9,0.5,1.3c0.3,0.4,0.8,0.6,1.3,0.6h21.6l0,0
		c0.9,0,1.7-0.8,1.7-1.7c0-0.5-0.2-0.9-0.5-1.3c-0.3-0.3-0.8-0.6-1.3-0.6L12.6,12.3z"/>
</g>
</svg>
